<svg xmlns="http://www.w3.org/2000/svg" viewBox="0 0 512 512">
  <defs>
    <radialGradient id="bg" cx="50%" cy="42%" r="72%">
      <stop offset="0" stop-color="#ffffff"/>
      <stop offset="0.58" stop-color="#fff0f8"/>
      <stop offset="1" stop-color="#ffd5ea"/>
    </radialGradient>
    <linearGradient id="star" x1="120" y1="96" x2="392" y2="430" gradientUnits="userSpaceOnUse">
      <stop offset="0" stop-color="#fff4fb"/>
      <stop offset="0.16" stop-color="#ffc8e8"/>
      <stop offset="0.52" stop-color="#ff8bcf"/>
      <stop offset="0.82" stop-color="#f45bad"/>
      <stop offset="1" stop-color="#dc4198"/>
    </linearGradient>
    <linearGradient id="rim" x1="96" y1="78" x2="420" y2="454" gradientUnits="userSpaceOnUse">
      <stop offset="0" stop-color="#fff9fd"/>
      <stop offset="0.34" stop-color="#ffb3df"/>
      <stop offset="1" stop-color="#d93391"/>
    </linearGradient>
    <filter id="softShadow" x="-30%" y="-30%" width="160%" height="160%">
      <feDropShadow dx="0" dy="16" stdDeviation="18" flood-color="#d93b92" flood-opacity="0.25"/>
    </filter>
    <filter id="innerGlow" x="-20%" y="-20%" width="140%" height="140%">
      <feGaussianBlur in="SourceAlpha" stdDeviation="3" result="blur"/>
      <feOffset dy="2" result="offset"/>
      <feComposite in="offset" in2="SourceAlpha" operator="arithmetic" k2="-1" k3="1" result="inner"/>
      <feColorMatrix in="inner" type="matrix" values="1 0 0 0 1  0 0.35 0 0 0.35  0 0 0.65 0 0.72  0 0 0 0.55 0"/>
      <feComposite in2="SourceGraphic" operator="over"/>
    </filter>
  </defs>
  <rect width="512" height="512" rx="112" fill="url(#bg)"/>
  <path filter="url(#softShadow)" d="M256 72c19.3 0 35.8 12.6 43.2 32.8l34.2 93.4 99.5 4c22.4.9 40 12.9 45.9 31.2 5.9 18.3-1.5 38.3-19.1 52.1l-78.5 61.2 26.9 95.8c6 21.6-.9 41.7-16.5 53-15.6 11.3-36.9 10.9-55.4-1.7L256 438.1l-80.2 55.7c-18.5 12.6-39.8 13-55.4 1.7-15.6-11.3-22.5-31.4-16.5-53l26.9-95.8-78.5-61.2C34.7 271.7 27.3 251.7 33.2 233.4c5.9-18.3 23.5-30.3 45.9-31.2l99.5-4 34.2-93.4C220.2 84.6 236.7 72 256 72Z" fill="url(#rim)"/>
  <path filter="url(#innerGlow)" d="M256 96c11.4 0 21.3 8.2 26.1 21.5l39.7 108.4 115.3 4.6c14.5.6 19.8 15.8 8.3 24.8l-91 70.9 31.2 111c4 14.1-8.8 23.6-20.9 15.4L256 377.2l-108.7 75.4c-12.1 8.2-24.9-1.3-20.9-15.4l31.2-111-91-70.9c-11.5-9-6.2-24.2 8.3-24.8l115.3-4.6 39.7-108.4C234.7 104.2 244.6 96 256 96Z" fill="url(#star)"/>
  <path d="M247 116c16 0 30 11 36 30l23 70c5 15-13 24-22 10l-28-43-28 43c-9 14-27 5-22-10l23-70c6-19 14-30 18-30Z" fill="#ffffff" opacity="0.38"/>
  <path d="M164 240c-41 2-60 5-69 14-7 7-4 17 7 22l60 28c17 8 31-12 18-26l-24-25c-6-6-2-12 8-13Z" fill="#ffffff" opacity="0.48"/>
  <path d="M338 244c36 2 60 5 73 14 8 6 5 17-8 23l-62 29c-18 8-32-13-18-27l24-25c5-6 1-13-9-14Z" fill="#ffffff" opacity="0.42"/>
  <path d="M363 334c-19 34-55 53-107 54-51-1-87-20-107-54" fill="none" stroke="#bf2d83" stroke-width="9" stroke-linecap="round" opacity="0.18"/>
  <path d="M155 173c23-50 54-83 91-85" fill="none" stroke="#ffffff" stroke-width="15" stroke-linecap="round" opacity="0.32"/>
</svg>
